<svg width="150" height="17" viewBox="0 0 150 17" fill="none" xmlns="http://www.w3.org/2000/svg">
<path d="M4.4216 9.01551V13.7511C4.4216 14.7741 4.52852 15.4095 4.74234 15.6573C5.03253 16.0089 5.47164 16.1848 6.05966 16.1848H6.65531V16.6283H0V16.1848H0.584201C1.24095 16.1848 1.7106 15.961 1.99316 15.5134C2.14589 15.2656 2.22226 14.6782 2.22226 13.7511V3.24894C2.22226 2.2259 2.11916 1.5905 1.91297 1.34274C1.61514 0.991067 1.17222 0.815233 0.584201 0.815233H0V0.37165H5.6931C7.08296 0.37165 8.17882 0.523507 8.98066 0.827221C9.78251 1.12294 10.4584 1.62647 11.0082 2.3378C11.558 3.04913 11.8329 3.89234 11.8329 4.86742C11.8329 6.19417 11.4129 7.27315 10.5729 8.10437C9.74051 8.93559 8.56065 9.3512 7.03333 9.3512C6.65913 9.3512 6.25439 9.32323 5.8191 9.26728C5.38382 9.21133 4.91798 9.12741 4.4216 9.01551ZM4.4216 8.33216C4.82634 8.41208 5.18526 8.47203 5.49837 8.51199C5.81147 8.55195 6.07875 8.57193 6.30021 8.57193C7.09442 8.57193 7.7779 8.25223 8.35064 7.61283C8.93103 6.96544 9.22122 6.13023 9.22122 5.10719C9.22122 4.40385 9.08376 3.75247 8.80884 3.15303C8.53392 2.5456 8.14445 2.09403 7.64044 1.79831C7.13642 1.49459 6.56367 1.34274 5.9222 1.34274C5.53273 1.34274 5.03253 1.41866 4.4216 1.57052V8.33216Z" fill="white"/>
<path d="M26.9466 16.1848V16.6283H20.2913V16.1848H20.8411C21.4826 16.1848 21.9484 15.989 22.2386 15.5973C22.4219 15.3416 22.5135 14.7261 22.5135 13.7511V3.24894C22.5135 2.42572 22.4639 1.88223 22.3646 1.61848C22.2882 1.41866 22.1317 1.24683 21.895 1.10296C21.5589 0.911142 21.2077 0.815233 20.8411 0.815233H20.2913V0.37165H26.9466V0.815233H26.3853C25.7514 0.815233 25.2894 1.01105 24.9992 1.40268C24.8083 1.65844 24.7129 2.27386 24.7129 3.24894V13.7511C24.7129 14.5743 24.7625 15.1178 24.8618 15.3815C24.9381 15.5813 25.0985 15.7532 25.3429 15.897C25.6713 16.0889 26.0187 16.1848 26.3853 16.1848H26.9466Z" fill="white"/>
<path d="M44.1335 7.62482L47.4669 12.8279C48.391 14.2666 49.0744 15.1777 49.5174 15.5614C49.9679 15.937 50.5369 16.1448 51.2242 16.1848V16.6283H44.5574V16.1848C45.0003 16.1768 45.3287 16.1288 45.5425 16.0409C45.7029 15.969 45.8327 15.8611 45.932 15.7172C46.0389 15.5653 46.0923 15.4135 46.0923 15.2616C46.0923 15.0778 46.058 14.894 45.9892 14.7102C45.9358 14.5743 45.7258 14.2226 45.3592 13.6551L42.7246 9.48307L39.4714 13.847C39.1277 14.3105 38.9216 14.6222 38.8528 14.7821C38.7841 14.9339 38.7497 15.0938 38.7497 15.2616C38.7497 15.5174 38.8528 15.7292 39.059 15.897C39.2652 16.0649 39.6585 16.1608 40.2389 16.1848V16.6283H34.7291V16.1848C35.1185 16.1448 35.4545 16.0609 35.7371 15.933C36.2106 15.7252 36.6611 15.4455 37.0888 15.0938C37.5164 14.7421 38.0052 14.2026 38.555 13.4753L42.2206 8.63188L39.1621 3.94429C38.3297 2.67348 37.6233 1.84227 37.0429 1.45063C36.4626 1.05101 35.7944 0.83921 35.0383 0.815233V0.37165H42.2206V0.815233C41.6096 0.83921 41.1896 0.943112 40.9605 1.12694C40.7391 1.31077 40.6283 1.51457 40.6283 1.73836C40.6283 2.03409 40.8116 2.46568 41.1782 3.03315L43.5608 6.76164L46.3214 3.10508C46.6422 2.67348 46.8369 2.37776 46.9056 2.21791C46.982 2.05806 47.0202 1.89422 47.0202 1.72638C47.0202 1.55853 46.9744 1.41067 46.8827 1.28279C46.7682 1.11495 46.6231 0.99906 46.4474 0.93512C46.2718 0.863188 45.9091 0.823225 45.3592 0.815233V0.37165H50.869V0.815233C50.4338 0.83921 50.0787 0.911142 49.8037 1.03103C49.3914 1.21486 49.0133 1.46262 48.6697 1.77433C48.3261 2.08604 47.8411 2.66149 47.2149 3.50071L44.1335 7.62482Z" fill="white"/>
<path d="M65.7879 16.1848V16.6283H59.1326V16.1848H59.6825C60.3239 16.1848 60.7898 15.989 61.08 15.5973C61.2632 15.3416 61.3549 14.7261 61.3549 13.7511V3.24894C61.3549 2.42572 61.3053 1.88223 61.206 1.61848C61.1296 1.41866 60.9731 1.24683 60.7363 1.10296C60.4003 0.911142 60.049 0.815233 59.6825 0.815233H59.1326V0.37165H65.7879V0.815233H65.2267C64.5928 0.815233 64.1308 1.01105 63.8406 1.40268C63.6497 1.65844 63.5542 2.27386 63.5542 3.24894V13.7511C63.5542 14.5743 63.6039 15.1178 63.7031 15.3815C63.7795 15.5813 63.9399 15.7532 64.1843 15.897C64.5126 16.0889 64.8601 16.1848 65.2267 16.1848H65.7879Z" fill="white"/>
<path d="M78.3013 1.25882V7.68477H81.7149C82.6007 7.68477 83.1926 7.5449 83.4904 7.26516C83.8875 6.89751 84.109 6.25012 84.1548 5.32299H84.5786V10.9817H84.1548C84.0479 10.1904 83.941 9.68289 83.834 9.4591C83.6966 9.17936 83.4713 8.95957 83.1582 8.79972C82.8451 8.63987 82.364 8.55994 81.7149 8.55994H78.3013V13.9189C78.3013 14.6382 78.3319 15.0778 78.393 15.2377C78.454 15.3895 78.561 15.5134 78.7137 15.6093C78.8664 15.6972 79.1566 15.7412 79.5843 15.7412H82.2189C83.0971 15.7412 83.7348 15.6772 84.1319 15.5494C84.529 15.4215 84.9108 15.1697 85.2774 14.7941C85.7508 14.2985 86.2358 13.5512 86.7321 12.5522H87.1903L85.8501 16.6283H73.8797V16.1848H74.4295C74.7961 16.1848 75.1436 16.0929 75.4719 15.909C75.7163 15.7811 75.8805 15.5893 75.9645 15.3336C76.0561 15.0778 76.102 14.5543 76.102 13.763V3.20099C76.102 2.16996 76.0027 1.53456 75.8041 1.29478C75.5292 0.975082 75.071 0.815233 74.4295 0.815233H73.8797V0.37165H85.8501L86.0219 3.9323H85.5752C85.4148 3.0771 85.2354 2.48966 85.0368 2.16996C84.8459 1.85026 84.5595 1.60649 84.1777 1.43865C83.8722 1.31876 83.3338 1.25882 82.5625 1.25882H78.3013Z" fill="white"/>
<path d="M105.534 0V5.62271H105.11C104.973 4.54372 104.725 3.68453 104.366 3.04513C104.015 2.40574 103.511 1.89821 102.854 1.52257C102.197 1.14692 101.517 0.959097 100.815 0.959097C100.021 0.959097 99.3639 1.21486 98.8446 1.72638C98.3253 2.2299 98.0656 2.80536 98.0656 3.45275C98.0656 3.94828 98.2298 4.39986 98.5582 4.80748C99.0317 5.40691 100.158 6.20616 101.937 7.20522C103.388 8.02045 104.377 8.64786 104.904 9.08745C105.439 9.51904 105.847 10.0306 106.13 10.622C106.42 11.2134 106.565 11.8329 106.565 12.4803C106.565 13.7111 106.107 14.7741 105.191 15.6693C104.282 16.5564 103.11 17 101.674 17C101.223 17 100.8 16.964 100.402 16.8921C100.166 16.8521 99.6731 16.7083 98.9248 16.4605C98.184 16.2047 97.7144 16.0769 97.5158 16.0769C97.3249 16.0769 97.1722 16.1368 97.0576 16.2567C96.9507 16.3766 96.8705 16.6244 96.8171 17H96.3932V11.4252H96.8171C97.0156 12.5921 97.2829 13.4673 97.6189 14.0508C97.9549 14.6262 98.4666 15.1058 99.1539 15.4894C99.8488 15.8731 100.609 16.0649 101.433 16.0649C102.388 16.0649 103.14 15.8011 103.69 15.2736C104.247 14.7461 104.526 14.1227 104.526 13.4034C104.526 13.0038 104.419 12.6001 104.205 12.1925C103.999 11.7849 103.675 11.4053 103.232 11.0536C102.934 10.8138 102.121 10.3063 100.792 9.53103C99.4631 8.74777 98.5162 8.12435 97.9511 7.66079C97.3936 7.19723 96.9698 6.68571 96.6796 6.12623C96.3894 5.56676 96.2443 4.95134 96.2443 4.27997C96.2443 3.11307 96.672 2.11001 97.5273 1.2708C98.3826 0.423601 99.4708 0 100.792 0C101.617 0 102.491 0.211801 103.415 0.635402C103.843 0.835214 104.144 0.93512 104.32 0.93512C104.519 0.93512 104.679 0.875176 104.801 0.755289C104.931 0.627409 105.034 0.375646 105.11 0H105.534Z" fill="white"/>
<path d="M119.777 1.25882V7.68477H123.191C124.077 7.68477 124.669 7.5449 124.966 7.26516C125.364 6.89751 125.585 6.25012 125.631 5.32299H126.055V10.9817H125.631C125.524 10.1904 125.417 9.68289 125.31 9.4591C125.173 9.17936 124.947 8.95957 124.634 8.79972C124.321 8.63987 123.84 8.55994 123.191 8.55994H119.777V13.9189C119.777 14.6382 119.808 15.0778 119.869 15.2377C119.93 15.3895 120.037 15.5134 120.19 15.6093C120.342 15.6972 120.633 15.7412 121.06 15.7412H123.695C124.573 15.7412 125.211 15.6772 125.608 15.5494C126.005 15.4215 126.387 15.1697 126.753 14.7941C127.227 14.2985 127.712 13.5512 128.208 12.5522H128.666L127.326 16.6283H115.356V16.1848H115.906C116.272 16.1848 116.62 16.0929 116.948 15.909C117.192 15.7811 117.357 15.5893 117.441 15.3336C117.532 15.0778 117.578 14.5543 117.578 13.763V3.20099C117.578 2.16996 117.479 1.53456 117.28 1.29478C117.005 0.975082 116.547 0.815233 115.906 0.815233H115.356V0.37165H127.326L127.498 3.9323H127.051C126.891 3.0771 126.711 2.48966 126.513 2.16996C126.322 1.85026 126.036 1.60649 125.654 1.43865C125.348 1.31876 124.81 1.25882 124.039 1.25882H119.777Z" fill="white"/>
<path d="M149.828 0.37165L150 4.18406H149.565C149.481 3.51269 149.366 3.03315 149.221 2.74542C148.984 2.28185 148.667 1.94217 148.27 1.72638C147.881 1.50259 147.365 1.39069 146.724 1.39069H144.536V13.811C144.536 14.8101 144.639 15.4335 144.845 15.6812C145.135 16.0169 145.582 16.1848 146.186 16.1848H146.724V16.6283H140.137V16.1848H140.687C141.344 16.1848 141.81 15.977 142.085 15.5614C142.253 15.3056 142.337 14.7221 142.337 13.811V1.39069H140.469C139.744 1.39069 139.229 1.44664 138.923 1.55853C138.526 1.71039 138.186 2.00212 137.904 2.43371C137.621 2.8653 137.453 3.44875 137.4 4.18406H136.964L137.148 0.37165H149.828Z" fill="white"/>
</svg>
